<svg width="600" height="90" viewBox="0 0 600 90" fill="none" xmlns="http://www.w3.org/2000/svg">
<path d="M34.3713 21.25C41.0681 21.25 47.0021 22.8333 52.1731 26C57.4289 29.1667 61.5403 33.2083 64.5072 38.125C67.4742 43.0417 69.0425 48.5 69.212 54.5C69.4663 60.5 67.9404 66.375 64.6344 72.125C61.837 76.875 58.1918 80.6667 53.699 83.5C49.2061 86.3333 44.4166 88.0833 39.3303 88.75C34.2441 89.5 29.1155 89.0833 23.9445 87.5C18.8582 86 14.2806 83.25 10.2116 79.25C5.63399 74.6667 2.58225 69.375 1.05637 63.375C-0.469499 57.375 -0.342343 51.375 1.43784 45.375C2.20078 42.9583 3.42995 40.9583 5.12537 39.375C6.90555 37.7917 8.89766 36.625 11.1017 35.875C13.3057 35.125 15.5945 34.7917 17.9681 34.875C20.3417 34.9583 22.5457 35.4583 24.5802 36.375C26.6147 37.2083 28.3101 38.4583 29.6665 40.125C31.1076 41.7083 31.9553 43.6667 32.2096 46C30.938 45.0833 29.4122 44.625 27.632 44.625C25.8518 44.5417 24.114 44.9167 22.4186 45.75C20.8079 46.5 19.4092 47.7083 18.2224 49.375C17.1204 50.9583 16.5694 52.9583 16.5694 55.375C16.5694 59.5417 17.4595 63 19.2397 65.75C21.0199 68.5 23.2239 70.5833 25.8518 72C28.5645 73.3333 31.4467 74 34.4984 74C37.6349 74 40.5171 73.2917 43.145 71.875C45.8577 70.4583 48.1041 68.375 49.8843 65.625C51.6645 62.7917 52.5546 59.2917 52.5546 55.125C52.5546 51.875 51.9612 49 50.7744 46.5C49.5876 44 47.9769 41.9583 45.9425 40.375C43.9927 38.7083 41.7039 37.5833 39.076 37C36.4481 36.3333 33.6507 36.2917 30.6837 36.875C29.4122 35.375 27.8439 34.2083 25.979 33.375C24.1988 32.4583 22.249 31.875 20.1298 31.625C18.0105 31.2917 15.8912 31.3333 13.772 31.75C11.6527 32.0833 9.6606 32.7917 7.79564 33.875C11.1865 29.875 15.1283 26.7917 19.6212 24.625C24.114 22.375 29.0307 21.25 34.3713 21.25Z" fill="#FF6507"/>
<path d="M88.342 30.25C89.0202 28.75 90.0374 27.4583 91.3938 26.375C92.8349 25.2917 94.4031 24.375 96.0985 23.625C97.794 22.875 99.5318 22.2917 101.312 21.875C103.092 21.4583 104.745 21.2083 106.271 21.125C109.492 20.9583 112.671 21.4167 115.808 22.5C118.944 23.5 121.826 25.2917 124.454 27.875C128.269 31.7917 130.176 37.4167 130.176 44.75V87.5H113.9C113.9 86.0833 113.9 84.1667 113.9 81.75C113.985 79.3333 114.028 76.7083 114.028 73.875C114.028 70.9583 114.028 67.9583 114.028 64.875C114.028 61.7917 113.985 58.875 113.9 56.125C113.816 53.375 113.688 50.9167 113.519 48.75C113.349 46.5833 113.137 45 112.883 44C112.205 41.3333 110.891 39.3333 108.941 38C107.076 36.6667 105.042 36 102.838 36C99.9556 36 97.7092 36.7917 96.0985 38.375C94.4879 39.875 93.6826 41.875 93.6826 44.375C92.6653 44.0417 91.6481 43.375 90.6308 42.375C89.6136 41.2917 88.8506 40.1667 88.342 39V87.5H71.9389V22.75H88.342V30.25Z" fill="#FF6507"/>
<path d="M182.897 80.5C179.761 83.5 176.328 85.7083 172.598 87.125C168.953 88.4583 165.265 89.0417 161.535 88.875C157.805 88.7917 154.203 88 150.727 86.5C147.251 84.9167 144.157 82.7083 141.445 79.875C138.817 76.9583 136.697 73.5 135.087 69.5C133.476 65.5 132.671 60.9583 132.671 55.875C132.671 50.9583 133.519 46.4583 135.214 42.375C136.994 38.2917 139.325 34.7917 142.208 31.875C145.174 28.875 148.523 26.5833 152.253 25C155.983 23.4167 159.882 22.7083 163.951 22.875C168.19 23.0417 171.496 23.9167 173.869 25.5C176.328 27.0833 178.065 28.9167 179.083 31C180.185 33.0833 180.693 35.2083 180.609 37.375C180.609 39.4583 180.227 41.1667 179.464 42.5C178.023 40.5 175.989 39.1667 173.361 38.5C170.818 37.75 168.402 37.375 166.113 37.375C162.298 37.375 159.077 38.2917 156.449 40.125C153.906 41.9583 151.956 44.25 150.6 47C149.328 49.75 148.692 52.75 148.692 56C148.692 59.1667 149.328 62.125 150.6 64.875C151.871 67.625 153.779 69.9167 156.322 71.75C158.865 73.5833 162.086 74.5 165.986 74.5C169.292 74.5 172.004 73.7917 174.124 72.375C176.328 70.875 178.066 68.9583 179.337 66.625C180.609 64.2917 181.499 61.7083 182.007 58.875C182.601 55.9583 182.897 53.0833 182.897 50.25V0.124998C187.899 0.291668 191.798 1.625 194.596 4.125C197.478 6.625 198.919 9.54167 198.919 12.875V87.375H182.897V80.5Z" fill="#FF6507"/>
<path d="M248.839 62.5C244.261 63.6667 240.065 64.0833 236.25 63.75C232.52 63.4167 229.426 62.5417 226.968 61.125C224.594 59.625 222.984 57.6667 222.136 55.25C221.373 52.75 221.627 49.9583 222.899 46.875C225.527 49.0417 228.579 50.25 232.054 50.5C235.53 50.6667 238.878 50.5833 242.099 50.25C244.812 50 246.847 49.4167 248.203 48.5C249.644 47.5833 250.534 46.5417 250.873 45.375C251.212 44.125 251.085 42.8333 250.492 41.5C249.898 40.1667 248.924 38.9583 247.567 37.875C246.296 36.7917 244.685 35.9167 242.735 35.25C240.87 34.5833 238.793 34.2917 236.505 34.375C234.046 34.5417 231.715 35.125 229.511 36.125C227.307 37.125 225.357 38.5 223.662 40.25C221.966 42 220.61 44.0417 219.593 46.375C218.576 48.7083 218.025 51.2917 217.94 54.125C217.855 56.4583 218.109 58.75 218.703 61C219.381 63.25 220.356 65.3333 221.627 67.25C222.899 69.0833 224.425 70.6667 226.205 72C227.985 73.25 230.02 74.0417 232.308 74.375C235.53 74.9583 238.836 74.75 242.227 73.75C245.617 72.75 248.627 70.9167 251.255 68.25L264.606 74.625C261.131 79.7083 257.019 83.375 252.272 85.625C247.525 87.7917 242.099 88.875 235.996 88.875C230.316 88.875 225.315 87.9167 220.992 86C216.753 84 213.193 81.375 210.31 78.125C207.513 74.875 205.394 71.2083 203.953 67.125C202.596 62.9583 201.961 58.75 202.045 54.5C202.13 50.1667 202.978 45.9583 204.588 41.875C206.199 37.7083 208.53 34.0417 211.582 30.875C214.973 27.2917 218.915 24.75 223.408 23.25C227.985 21.75 232.648 21 237.395 21C242.651 21 247.186 21.875 251 23.625C254.815 25.375 257.909 27.625 260.283 30.375C262.656 33.0417 264.225 36.0417 264.988 39.375C265.751 42.625 265.666 45.7917 264.733 48.875C263.886 51.9583 262.148 54.75 259.52 57.25C256.892 59.6667 253.332 61.4167 248.839 62.5Z" fill="#FF6507"/>
<path d="M268.842 22.5H283.083V30.75C284.525 27.8333 286.347 25.5417 288.551 23.875C290.84 22.125 293.341 21.1667 296.053 21C299.614 20.75 302.496 21.4167 304.7 23C306.904 24.5 308.43 26.375 309.278 28.625C310.21 30.7917 310.464 33.0417 310.041 35.375C309.617 37.625 308.472 39.4167 306.607 40.75C305.844 38.6667 304.361 37.3333 302.157 36.75C300.038 36.0833 297.791 36.1667 295.418 37C293.044 37.75 290.882 39.2083 288.933 41.375C287.068 43.5417 285.966 46.375 285.627 49.875C285.457 51.875 285.372 53.875 285.372 55.875C285.372 57.7917 285.372 59.5833 285.372 61.25V87.5H268.842V22.5Z" fill="#FF6507"/>
<path d="M331.375 87.5H315.353V12.875C315.353 9.45834 316.752 6.5 319.549 4C322.432 1.5 326.373 0.166669 331.375 0V50.375C331.375 53.2083 331.629 56.0833 332.138 59C332.731 61.8333 333.664 64.4167 334.935 66.75C336.207 69.0833 337.945 71 340.149 72.5C342.353 73.9167 345.108 74.625 348.414 74.625C352.313 74.625 355.535 73.7083 358.078 71.875C360.706 70.0417 362.655 67.75 363.927 65C365.198 62.25 365.792 59.25 365.707 56C365.707 52.75 365.029 49.75 363.673 47C362.401 44.25 360.451 41.9583 357.823 40.125C355.28 38.2917 352.101 37.375 348.287 37.375C345.998 37.375 343.54 37.75 340.912 38.5C338.369 39.1667 336.376 40.5 334.935 42.5C334.172 41.1667 333.749 39.4167 333.664 37.25C333.664 35.0833 334.215 32.9583 335.317 30.875C336.419 28.7917 338.157 26.9583 340.53 25.375C342.904 23.7917 346.21 22.9167 350.448 22.75C354.517 22.6667 358.417 23.4167 362.147 25C365.961 26.5833 369.31 28.8333 372.192 31.75C375.159 34.6667 377.49 38.2083 379.186 42.375C380.966 46.4583 381.856 50.9583 381.856 55.875C381.856 60.9583 381.051 65.5417 379.44 69.625C377.829 73.625 375.668 77.0417 372.955 79.875C370.242 82.7083 367.148 84.9167 363.673 86.5C360.197 88.0833 356.594 88.9167 352.864 89C349.134 89.1667 345.404 88.5833 341.675 87.25C337.945 85.9167 334.511 83.7083 331.375 80.625V87.5Z" fill="#FF6507"/>
<path d="M391.174 71.5C393.802 71.5 396.006 72.4167 397.786 74.25C399.651 76 400.584 78.1667 400.584 80.75C400.584 83.3333 399.651 85.5 397.786 87.25C396.006 89.0833 393.802 90 391.174 90C388.631 90 386.427 89.0833 384.562 87.25C382.782 85.5 381.892 83.3333 381.892 80.75C381.892 78.1667 382.782 76 384.562 74.25C386.427 72.4167 388.631 71.5 391.174 71.5Z" fill="black"/>
<path d="M450.859 80.5C447.722 83.5 444.289 85.7083 440.559 87.125C436.914 88.4583 433.227 89.0417 429.497 88.875C425.767 88.7917 422.164 88 418.688 86.5C415.213 84.9167 412.119 82.7083 409.406 79.875C406.778 76.9583 404.659 73.5 403.048 69.5C401.438 65.5 400.632 60.9583 400.632 55.875C400.632 50.9583 401.48 46.4583 403.175 42.375C404.956 38.2917 407.287 34.7917 410.169 31.875C413.136 28.875 416.484 26.5833 420.214 25C423.944 23.4167 427.844 22.7083 431.913 22.875C436.151 23.0417 439.457 23.9167 441.831 25.5C444.289 27.0833 446.027 28.9167 447.044 31C448.146 33.0833 448.655 35.2083 448.57 37.375C448.57 39.4583 448.189 41.1667 447.426 42.5C445.985 40.5 443.95 39.1667 441.322 38.5C438.779 37.75 436.363 37.375 434.074 37.375C430.26 37.375 427.038 38.2917 424.41 40.125C421.867 41.9583 419.918 44.25 418.561 47C417.29 49.75 416.654 52.75 416.654 56C416.654 59.1667 417.29 62.125 418.561 64.875C419.833 67.625 421.74 69.9167 424.283 71.75C426.826 73.5833 430.048 74.5 433.947 74.5C437.253 74.5 439.966 73.7917 442.085 72.375C444.289 70.875 446.027 68.9583 447.299 66.625C448.57 64.2917 449.46 61.7083 449.969 58.875C450.562 55.9583 450.859 53.0833 450.859 50.25V0.124998C455.86 0.291668 459.76 1.625 462.557 4.125C465.439 6.625 466.881 9.54167 466.881 12.875V87.375H450.859V80.5Z" fill="black"/>
<path d="M516.8 62.5C512.223 63.6667 508.026 64.0833 504.212 63.75C500.482 63.4167 497.388 62.5417 494.929 61.125C492.556 59.625 490.945 57.6667 490.097 55.25C489.335 52.75 489.589 49.9583 490.86 46.875C493.488 49.0417 496.54 50.25 500.016 50.5C503.491 50.6667 506.84 50.5833 510.061 50.25C512.774 50 514.808 49.4167 516.164 48.5C517.606 47.5833 518.496 46.5417 518.835 45.375C519.174 44.125 519.047 42.8333 518.453 41.5C517.86 40.1667 516.885 38.9583 515.529 37.875C514.257 36.7917 512.646 35.9167 510.697 35.25C508.832 34.5833 506.755 34.2917 504.466 34.375C502.008 34.5417 499.677 35.125 497.472 36.125C495.268 37.125 493.319 38.5 491.623 40.25C489.928 42 488.572 44.0417 487.554 46.375C486.537 48.7083 485.986 51.2917 485.901 54.125C485.817 56.4583 486.071 58.75 486.664 61C487.342 63.25 488.317 65.3333 489.589 67.25C490.86 69.0833 492.386 70.6667 494.166 72C495.947 73.25 497.981 74.0417 500.27 74.375C503.491 74.9583 506.797 74.75 510.188 73.75C513.579 72.75 516.588 70.9167 519.216 68.25L532.568 74.625C529.092 79.7083 524.981 83.375 520.233 85.625C515.486 87.7917 510.061 88.875 503.957 88.875C498.278 88.875 493.276 87.9167 488.953 86C484.715 84 481.154 81.375 478.272 78.125C475.475 74.875 473.355 71.2083 471.914 67.125C470.558 62.9583 469.922 58.75 470.007 54.5C470.092 50.1667 470.939 45.9583 472.55 41.875C474.161 37.7083 476.492 34.0417 479.544 30.875C482.934 27.2917 486.876 24.75 491.369 23.25C495.947 21.75 500.609 21 505.356 21C510.612 21 515.147 21.875 518.962 23.625C522.777 25.375 525.871 27.625 528.244 30.375C530.618 33.0417 532.186 36.0417 532.949 39.375C533.712 42.625 533.627 45.7917 532.695 48.875C531.847 51.9583 530.109 54.75 527.481 57.25C524.853 59.6667 521.293 61.4167 516.8 62.5Z" fill="black"/>
<path d="M532.989 22.875H549.901L566.431 61L578.892 32.75C579.74 30.9167 580.799 29.25 582.071 27.75C583.343 26.1667 584.826 24.875 586.521 23.875C588.217 22.875 590.167 22.25 592.371 22C594.659 21.6667 597.203 21.7917 600 22.375L571.644 87.5H561.09L532.989 22.875Z" fill="black"/>
</svg>
