<?xml version="1.0" standalone="no"?>
<!DOCTYPE svg PUBLIC "-//W3C//DTD SVG 20010904//EN"
 "http://www.w3.org/TR/2001/REC-SVG-20010904/DTD/svg10.dtd">
<svg version="1.0" xmlns="http://www.w3.org/2000/svg"
 width="500.000000pt" height="500.000000pt" viewBox="0 0 500.000000 500.000000"
 preserveAspectRatio="xMidYMid meet">
<metadata>
Created by potrace 1.14, written by Peter Selinger 2001-2017
</metadata>
<g transform="translate(0.000000,500.000000) scale(0.100000,-0.100000)"
fill="#000000" stroke="none">
<path d="M2600 4404 c-113 -26 -223 -75 -290 -131 -49 -40 -120 -116 -120
-127 0 -4 -9 -19 -19 -34 -11 -15 -30 -56 -42 -92 -21 -62 -22 -83 -23 -460
l-1 -395 40 -24 c192 -117 392 -318 507 -511 51 -86 127 -259 135 -307 3 -18
8 -31 12 -29 3 2 6 483 6 1068 l0 1063 -53 0 c-29 1 -97 -9 -152 -21z"/>
<path d="M3545 3439 c-70 -9 -93 -13 -160 -30 -215 -54 -399 -231 -460 -443
-32 -110 -23 -264 21 -348 l16 -30 16 23 c9 13 27 32 39 42 13 10 30 25 38 33
26 26 137 71 235 94 132 32 333 36 442 10 237 -59 417 -228 514 -486 63 -167
67 -438 8 -603 -80 -225 -246 -396 -454 -464 -177 -59 -403 -50 -556 22 -35
16 -76 41 -91 55 -15 14 -31 26 -35 26 -4 0 -36 33 -70 74 -68 79 -120 173
-167 301 -27 72 -30 77 -32 45 -10 -204 -109 -471 -253 -685 -75 -112 -254
-292 -361 -364 -44 -30 -84 -58 -90 -63 -5 -4 142 -8 326 -8 l334 0 -1 138 c0
75 1 140 3 145 3 4 30 -15 61 -43 96 -86 225 -166 342 -213 238 -95 522 -118
766 -62 496 114 886 529 988 1051 9 44 18 93 22 109 3 17 7 109 9 205 5 302
-38 491 -173 755 -81 156 -225 330 -362 435 -25 19 -47 37 -50 40 -10 12 -128
80 -196 114 -213 105 -454 150 -669 125z"/>
<path d="M1123 3205 c-231 -43 -468 -153 -638 -296 -65 -55 -168 -160 -162
-165 2 -3 22 4 43 15 54 28 191 61 270 65 69 3 211 -15 278 -34 91 -27 226
-106 264 -155 18 -23 24 -24 65 -16 51 9 195 8 247 -3 257 -53 444 -217 525
-460 62 -187 48 -437 -34 -609 -75 -155 -234 -291 -412 -350 -179 -60 -443
-31 -595 66 -104 65 -210 187 -264 302 -57 123 -77 348 -41 464 36 116 126
206 256 257 74 28 224 27 284 -3 25 -12 47 -21 49 -18 9 8 -32 123 -58 165
-69 109 -162 177 -305 226 -134 46 -335 41 -475 -10 -185 -68 -309 -195 -367
-376 -47 -150 -65 -408 -38 -560 54 -307 170 -535 379 -744 88 -87 105 -101
197 -163 415 -281 959 -304 1418 -62 247 131 427 317 558 574 144 284 175 565
99 900 -38 171 -136 362 -262 512 -206 243 -478 407 -780 469 -106 22 -403 27
-501 9z"/>
</g>
</svg>
