<?xml version="1.0" standalone="no"?>
<!DOCTYPE svg PUBLIC "-//W3C//DTD SVG 20010904//EN"
 "http://www.w3.org/TR/2001/REC-SVG-20010904/DTD/svg10.dtd">
<svg version="1.0" xmlns="http://www.w3.org/2000/svg"
 width="500.000000pt" height="500.000000pt" viewBox="0 0 500.000000 500.000000"
 preserveAspectRatio="xMidYMid meet">
<metadata>
Created by potrace 1.14, written by Peter Selinger 2001-2017
</metadata>
<g transform="translate(0.000000,500.000000) scale(0.100000,-0.100000)"
fill="#000000" stroke="none">
<path d="M2475 3946 c-33 -6 -66 -15 -74 -20 -10 -6 -12 -6 -7 2 10 16 -4 15
-58 -3 -24 -8 -51 -12 -60 -9 -17 6 -72 -23 -62 -33 3 -3 12 0 20 6 12 10 14
9 10 -6 -3 -12 -16 -19 -35 -20 -46 -3 -58 -6 -54 -13 5 -8 -31 -40 -45 -40
-17 0 -100 -44 -100 -53 0 -4 -33 -24 -72 -42 -40 -19 -66 -34 -58 -35 8 0 -4
-9 -28 -21 -23 -12 -84 -59 -136 -105 -78 -69 -100 -96 -134 -162 -23 -44 -48
-85 -57 -92 -8 -7 -15 -19 -15 -26 0 -8 -12 -33 -26 -56 -18 -28 -31 -69 -39
-122 -7 -45 -20 -108 -29 -141 -18 -68 -23 -232 -7 -283 6 -19 24 -58 41 -88
16 -29 30 -67 30 -82 0 -16 11 -44 25 -63 37 -51 41 -64 55 -182 7 -59 15
-105 17 -103 3 2 14 -5 26 -17 14 -14 22 -17 25 -8 3 8 8 7 16 -5 14 -19 40
-10 33 10 -3 7 8 21 24 30 30 18 40 40 14 30 -9 -4 -15 0 -16 7 -1 29 -9 80
-19 121 -15 64 -22 235 -13 299 l8 55 33 -8 c25 -7 32 -14 32 -33 0 -13 5 -27
10 -30 6 -3 10 -15 10 -26 0 -28 29 -81 40 -74 12 8 33 -33 26 -51 -3 -8 -2
-13 3 -10 5 3 24 -18 42 -47 19 -28 40 -58 49 -65 13 -11 12 -11 -7 -3 -31 15
-35 14 -28 -9 3 -11 2 -20 -3 -20 -6 0 -8 -9 -5 -20 3 -10 -4 -34 -15 -52 -11
-18 -25 -50 -32 -70 -8 -27 -17 -38 -31 -38 -10 0 -19 -5 -19 -10 0 -6 -8 -14
-17 -17 -25 -10 -44 -30 -42 -45 1 -7 -1 -21 -6 -31 -4 -10 -2 -23 4 -31 6 -7
8 -22 4 -31 -5 -14 -3 -16 8 -10 11 6 11 5 3 -4 -8 -9 -9 -23 -2 -48 19 -70 1
-54 -23 20 -22 71 -39 98 -39 62 0 -11 -14 -15 -57 -17 -32 0 -65 -1 -73 0 -9
0 -5 -7 10 -19 31 -23 41 -24 33 -3 -5 14 -3 15 15 5 11 -6 34 -11 50 -11 26
0 30 -4 35 -37 10 -62 75 -181 118 -215 21 -17 39 -35 39 -39 0 -12 -94 -37
-170 -45 -92 -9 -145 -27 -185 -63 -20 -17 -42 -31 -49 -31 -8 0 -19 -6 -25
-14 -6 -7 -35 -16 -64 -18 -31 -2 -82 -18 -121 -36 -63 -30 -76 -32 -175 -32
-133 -1 -182 -12 -241 -55 -43 -31 -48 -39 -53 -85 -8 -64 -12 -70 -47 -70
-39 0 -75 -18 -89 -44 -7 -11 -30 -34 -52 -51 -22 -16 -77 -74 -122 -128 -45
-54 -109 -131 -142 -170 -33 -39 -115 -145 -182 -235 l-123 -164 0 -199 0
-199 2500 0 2500 0 0 460 0 460 -32 30 c-18 17 -69 55 -113 85 -44 29 -109 81
-143 113 -46 43 -76 63 -108 71 -26 7 -48 19 -51 29 -30 81 -159 158 -290 174
-193 23 -213 29 -265 75 -62 55 -70 59 -180 89 -92 25 -118 30 -296 60 -51 9
-92 19 -90 23 2 3 12 23 23 44 17 34 18 44 7 95 -10 49 -10 59 3 68 23 17 18
24 -14 24 -17 0 -33 5 -36 10 -3 5 2 10 12 10 10 0 26 11 35 24 l17 24 -42 6
c-23 3 -52 6 -64 6 -13 0 -23 5 -23 10 0 6 -4 10 -9 10 -8 0 -18 -27 -27 -67
-1 -7 -10 -36 -19 -64 l-18 -53 29 -22 c15 -13 25 -26 22 -30 -4 -3 -18 6 -32
21 -15 16 -27 25 -27 21 -4 -17 -6 -23 -22 -52 -9 -17 -13 -35 -9 -38 3 -4 0
-5 -8 -1 -10 3 -22 -5 -32 -22 l-17 -28 -2 50 c-1 28 -3 61 -5 75 -3 32 -5
110 -3 130 1 8 1 25 1 38 -2 19 -4 21 -16 10 -8 -7 -12 -16 -9 -21 2 -4 -3
-14 -11 -23 -15 -14 -16 -9 -16 50 0 42 4 66 11 66 8 0 8 4 1 13 -6 6 -10 33
-10 59 0 34 -6 52 -21 67 -12 12 -24 35 -27 50 -4 16 -14 31 -24 34 -9 2 -20
14 -23 26 -4 17 4 29 40 56 57 44 88 84 112 151 11 28 31 64 44 78 27 29 45
95 20 75 -26 -22 -13 11 17 43 17 17 30 37 30 43 0 12 21 25 41 25 17 0 9 -28
-13 -44 l-23 -17 23 11 c19 9 23 8 31 -12 5 -13 12 -101 16 -197 6 -159 9
-177 33 -223 14 -27 34 -54 45 -60 19 -10 19 -8 -2 20 l-22 31 22 43 c12 24
30 56 41 71 16 23 21 51 26 149 5 120 5 121 -16 116 -19 -5 -20 -3 -12 13 6
10 19 23 30 29 11 6 20 18 20 28 1 9 14 32 30 51 27 32 29 39 24 95 -8 87
-124 439 -163 496 -10 14 -23 48 -31 75 -7 28 -20 59 -29 70 -16 20 -16 20 8
0 28 -24 51 -66 51 -94 0 -11 5 -23 11 -26 23 -15 19 7 -12 65 -35 66 -83 114
-106 106 -8 -3 -12 -2 -9 3 6 9 -75 84 -114 105 -14 7 -44 23 -68 36 -70 37
-66 55 5 25 20 -8 38 -14 40 -11 9 9 -80 36 -102 30 -13 -3 -32 -1 -42 5 -15
9 -13 10 12 6 l30 -5 -30 14 c-16 9 -36 15 -43 16 -7 0 -42 17 -77 38 -44 25
-63 42 -60 52 4 11 2 11 -8 -2 -9 -11 -18 -14 -28 -7 -11 7 -11 9 4 9 24 0 16
24 -9 29 -10 2 -21 6 -24 10 -14 17 -86 31 -166 32 -59 0 -82 3 -69 9 l20 9
-20 -1 c-11 -1 -47 -6 -80 -12z m38 -186 c20 -4 37 -4 37 1 0 11 58 -7 84 -26
11 -8 31 -22 44 -31 19 -14 21 -14 17 -2 -8 20 19 30 49 18 13 -5 26 -6 29 -4
3 3 17 -2 32 -12 15 -10 30 -13 33 -8 9 12 44 15 36 3 -3 -5 6 -13 19 -18 14
-6 28 -14 31 -20 4 -6 14 -7 23 -4 11 4 14 3 9 -5 -4 -7 -3 -12 1 -12 5 0 14
-14 21 -32 6 -17 15 -29 18 -25 4 4 1 13 -5 21 -16 19 4 32 24 16 8 -6 20 -8
27 -4 7 4 10 4 6 -1 -6 -6 7 -20 65 -64 15 -12 17 -12 10 5 -6 17 -5 17 10 6
8 -8 14 -19 11 -26 -3 -8 3 -16 14 -18 20 -6 21 -11 25 -108 2 -53 12 -88 54
-185 43 -101 54 -139 68 -240 31 -222 30 -211 4 -218 -28 -8 -189 42 -189 58
0 19 -85 101 -105 102 -11 0 -33 5 -50 11 -16 6 -67 15 -112 21 -45 6 -105 20
-134 32 -28 12 -57 22 -65 22 -8 0 -14 6 -14 13 0 7 -8 10 -20 7 -11 -3 -28
-2 -37 1 -15 6 -15 9 -3 17 12 9 11 9 -5 4 -77 -28 -177 -32 -231 -9 -34 14
-46 15 -89 4 -27 -7 -58 -19 -69 -26 -10 -7 -25 -10 -32 -7 -8 3 -14 0 -14 -6
0 -6 -8 -11 -18 -11 -10 0 -22 -4 -27 -8 -15 -12 -75 -29 -127 -37 -40 -5 -56
-14 -95 -56 -27 -27 -54 -49 -62 -49 -11 0 -11 -3 -1 -15 19 -23 -5 -46 -39
-39 -18 4 -22 3 -13 -4 11 -7 10 -10 -5 -14 -27 -7 -53 14 -53 44 0 13 6 47
14 74 21 74 30 143 27 204 -3 57 30 237 54 294 34 82 150 203 245 258 30 17
63 38 73 46 9 8 17 10 17 4 0 -6 -3 -12 -7 -14 -5 -2 -19 -17 -33 -33 -23 -28
-22 -27 15 5 22 19 41 38 43 41 1 3 27 4 56 1 33 -3 56 0 60 7 4 6 18 11 32
11 13 0 24 4 24 9 0 5 8 12 18 15 9 4 33 13 52 21 19 8 46 12 60 8 14 -3 42
-9 63 -13z m-588 -70 c-3 -5 -12 -10 -18 -10 -7 0 -6 4 3 10 19 12 23 12 15 0z
m1159 -76 c5 -14 4 -15 -9 -4 -17 14 -19 20 -6 20 5 0 12 -7 15 -16z m121 -4
c3 -6 -1 -7 -9 -4 -18 7 -21 14 -7 14 6 0 13 -4 16 -10z m175 -198 c0 -15 -2
-15 -10 -2 -13 20 -13 33 0 25 6 -3 10 -14 10 -23z m-1939 -588 c-5 -16 -10
-21 -10 -12 -1 18 10 51 15 45 2 -1 -1 -16 -5 -33z m49 -139 c1 -11 2 -31 1
-45 -1 -22 -3 -23 -12 -7 -13 22 -28 115 -20 123 7 6 28 -41 31 -71z m235 65
c3 -5 1 -10 -4 -10 -6 0 -11 5 -11 10 0 6 2 10 4 10 3 0 8 -4 11 -10z m0 -30
c3 -5 1 -10 -4 -10 -6 0 -11 5 -11 10 0 6 2 10 4 10 3 0 8 -4 11 -10z m54 -90
c0 -10 -3 -8 -9 5 -12 27 -12 43 0 25 5 -8 9 -22 9 -30z m867 -31 c3 -6 2 -15
-4 -21 -6 -6 -12 -6 -16 1 -4 6 -1 11 6 11 9 0 9 3 -2 10 -9 6 -10 10 -3 10 6
0 15 -5 19 -11z m431 -9 c5 -18 11 -20 49 -14 41 6 43 5 50 -20 10 -41 -23
-114 -77 -168 -49 -49 -84 -64 -72 -30 3 9 14 26 24 37 10 11 19 25 21 30 2 6
6 9 11 8 4 -2 7 2 7 7 0 29 -52 -9 -64 -47 -1 -1 -13 -4 -27 -8 -21 -5 -27 -2
-38 21 -10 23 -10 29 3 36 9 5 16 14 16 20 0 14 65 78 80 78 7 0 8 6 0 19 -5
11 -10 27 -10 35 0 23 21 20 27 -4z m371 -112 c-6 -117 -28 -204 -44 -165 -4
10 -1 36 5 58 15 48 5 110 -15 102 -8 -3 -14 0 -14 6 0 6 6 11 14 11 8 0 18
10 21 23 11 38 27 77 32 77 3 0 3 -51 1 -112z m-1108 82 c0 -5 -4 -10 -10 -10
-5 0 -10 5 -10 10 0 6 5 10 10 10 6 0 10 -4 10 -10z m340 0 c0 -5 -4 -10 -10
-10 -5 0 -10 5 -10 10 0 6 5 10 10 10 6 0 10 -4 10 -10z m-330 -30 c0 -5 -4
-10 -9 -10 -6 0 -13 5 -16 10 -3 6 1 10 9 10 9 0 16 -4 16 -10z m318 -2 c-3
-7 1 -19 9 -26 7 -7 13 -23 13 -35 0 -12 9 -39 20 -60 11 -20 17 -37 14 -37
-10 0 -43 44 -44 58 0 6 -6 12 -14 12 -8 0 -19 14 -25 30 -7 21 -7 30 1 30 5
0 8 6 5 14 -6 15 1 26 16 26 5 0 7 -6 5 -12z m-1148 -68 c0 -13 -1 -13 -10 0
-5 8 -10 22 -10 30 0 13 1 13 10 0 5 -8 10 -22 10 -30z m335 30 c3 -5 1 -10
-4 -10 -6 0 -11 5 -11 10 0 6 2 10 4 10 3 0 8 -4 11 -10z m28 -60 c-1 -3 8
-15 19 -27 12 -13 19 -23 15 -23 -14 0 -57 56 -57 75 1 20 1 20 12 0 7 -11 11
-22 11 -25z m731 -35 c14 -18 28 -45 32 -60 4 -15 22 -43 42 -62 26 -27 36
-46 40 -80 l5 -45 -34 7 c-19 4 -38 11 -43 16 -5 4 -24 2 -43 -6 l-33 -14 6
26 c6 22 4 25 -10 20 -13 -5 -16 0 -16 24 0 22 -6 32 -19 36 -11 3 -18 14 -19
31 0 15 -4 44 -8 65 -14 82 49 109 100 42z m133 -57 c-12 19 8 14 34 -9 23
-19 23 -20 2 -10 -26 13 -36 14 -29 3 6 -10 -25 -9 -42 2 -7 4 -19 21 -28 38
l-16 32 43 -35 c24 -19 40 -28 36 -21z m-430 -165 c2 -6 -5 -13 -17 -16 -12
-3 -20 0 -20 7 0 26 29 33 37 9z m-643 -2 c3 -5 -1 -11 -9 -14 -9 -4 -12 -1
-8 9 6 16 10 17 17 5z m1031 -87 c8 -43 -5 -62 -34 -48 -18 9 -18 11 -3 47 9
20 20 37 23 37 4 0 10 -16 14 -36z m-936 -299 c0 -5 -4 -3 -9 5 -5 8 -9 22 -9
30 0 16 17 -16 18 -35z m1641 -81 c0 -18 -25 -28 -47 -19 -16 6 -16 8 5 19 12
7 19 15 15 20 -4 4 0 4 10 0 9 -3 17 -13 17 -20z m-195 -53 c-3 -16 -7 -64 -8
-108 -2 -71 -6 -85 -37 -137 -40 -67 -99 -137 -100 -119 0 7 -6 10 -14 7 -11
-4 -8 11 11 63 14 37 27 76 30 86 3 9 10 17 16 17 6 0 8 3 4 6 -3 4 5 23 18
43 14 19 25 40 25 46 0 6 5 16 12 23 6 6 13 22 15 34 3 24 23 68 30 68 3 0 2
-13 -2 -29z m-1225 -246 c0 -8 8 -37 19 -64 15 -39 16 -51 6 -55 -8 -2 -16 1
-19 9 -3 8 -1 15 4 17 5 2 2 12 -6 23 -13 18 -14 16 -9 -20 3 -27 1 -35 -6
-28 -6 6 -12 17 -13 24 -2 8 -7 25 -13 39 -6 14 -13 55 -15 93 l-6 67 29 -45
c16 -25 29 -52 29 -60z m48 -190 c-3 -3 -9 2 -12 12 -6 14 -5 15 5 6 7 -7 10
-15 7 -18z"/>
<path d="M3022 3545 c15 -16 29 -27 31 -24 3 2 -10 15 -27 28 l-31 24 27 -28z"/>
<path d="M2303 3387 c-3 -5 1 -13 8 -19 9 -6 -11 -7 -58 -5 -67 4 -72 3 -75
-17 -2 -16 -11 -22 -36 -24 -27 -3 -32 -7 -27 -20 4 -9 10 -28 13 -42 9 -45
32 -62 72 -54 19 4 62 8 95 9 118 3 127 5 122 18 -2 6 -13 11 -25 9 -17 -2
-22 4 -28 33 -3 19 -2 41 3 48 6 6 9 26 9 42 -1 27 -4 30 -34 30 -19 1 -36 -3
-39 -8z"/>
<path d="M2240 3380 c0 -5 5 -10 11 -10 5 0 7 5 4 10 -3 6 -8 10 -11 10 -2 0
-4 -4 -4 -10z"/>
<path d="M1971 1414 c0 -11 3 -14 6 -6 3 7 2 16 -1 19 -3 4 -6 -2 -5 -13z"/>
<path d="M1966 1375 c-9 -26 -7 -32 5 -12 6 10 9 21 6 23 -2 3 -7 -2 -11 -11z"/>
<path d="M1995 3820 c-3 -6 1 -7 9 -4 18 7 21 14 7 14 -6 0 -13 -4 -16 -10z"/>
<path d="M3450 3351 c0 -6 4 -13 10 -16 6 -3 7 1 4 9 -7 18 -14 21 -14 7z"/>
<path d="M3470 2305 c0 -15 40 -83 57 -95 17 -14 17 -14 2 5 -9 11 -22 35 -29
53 -11 29 -30 52 -30 37z"/>
<path d="M3422 2188 c-20 -24 -23 -62 -8 -83 14 -18 15 -18 16 -2 0 15 3 16
23 6 20 -11 21 -11 8 4 -7 10 -15 31 -17 49 -5 38 -8 42 -22 26z"/>
<path d="M1676 2084 c-4 -9 -4 -19 -1 -22 3 -3 5 0 5 6 0 7 7 12 15 12 8 0 15
5 15 10 0 16 -27 11 -34 -6z"/>
<path d="M3390 2045 c0 -31 3 -35 26 -35 14 0 23 4 19 10 -3 6 4 10 17 10 13
0 30 5 38 10 12 8 9 10 -13 10 -15 0 -41 7 -57 15 l-30 16 0 -36z"/>
<path d="M1581 1986 c12 -10 59 -15 59 -6 0 5 -14 10 -32 10 -17 0 -29 -2 -27
-4z"/>
</g>
</svg>
